<?xml version="1.0" encoding="utf-8"?>
<!-- Generator: Adobe Illustrator 23.0.1, SVG Export Plug-In . SVG Version: 6.00 Build 0)  -->
<svg version="1.1" id="Calque_1" xmlns="http://www.w3.org/2000/svg" xmlns:xlink="http://www.w3.org/1999/xlink" x="0px" y="0px"
	 viewBox="0 0 3039 305" style="enable-background:new 0 0 3039 305;" xml:space="preserve">
<style type="text/css">
	.st0{fill:#222222;}
	.st1{fill-rule:evenodd;clip-rule:evenodd;fill:#222222;}
	.st2{fill:#606060;}
	.st3{fill:#FDE068;}
	.st4{fill:#EEAB37;}
	.st5{opacity:0.12;fill-rule:evenodd;clip-rule:evenodd;fill:#FFFFFF;}
	.st6{fill-rule:evenodd;clip-rule:evenodd;fill:#EBEBEB;}
	.st7{fill-rule:evenodd;clip-rule:evenodd;fill:#FFFFFF;}
	.st8{fill:#FFFFFF;}
	.st9{fill-rule:evenodd;clip-rule:evenodd;fill:#222222;stroke:#FFFFFF;stroke-miterlimit:10;}
	.st10{clip-path:url(#SVGID_2_);fill:#222222;}
	.st11{opacity:0.93;}
	.st12{clip-path:url(#SVGID_4_);fill:#222222;}
	.st13{clip-path:url(#SVGID_6_);fill:#222222;}
	.st14{fill:#EBEBEB;}
</style>
<g>
	<path class="st0" d="M2697.76,132.17h-83.42c-0.95,0-1.75,0.8-1.75,1.75v87.33c0,0.95,0.8,1.75,1.75,1.75h83.42
		c0.95,0,1.75-0.8,1.75-1.75v-87.33C2699.5,132.97,2698.71,132.17,2697.76,132.17z M2626.51,146.08h59.08v25.44h-59.08V146.08z
		 M2685.59,209.08h-59.08v-25.44h59.08V209.08z"/>
	<path class="st0" d="M2636.92,197.79c0,3.84,3.12,6.96,6.96,6.96c3.84,0,6.96-3.12,6.96-6.96s-3.12-6.96-6.96-6.96
		C2640.04,190.83,2636.92,193.95,2636.92,197.79z M2636.92,159.13c0,3.84,3.12,6.96,6.96,6.96c3.84,0,6.96-3.12,6.96-6.96
		s-3.12-6.96-6.96-6.96C2640.04,152.17,2636.92,155.29,2636.92,159.13z"/>
	<path class="st0" d="M2721.1,115.44c-9.96-26.27-35.32-44.94-65.02-44.94c-29.69,0-55.05,18.67-65.01,44.94
		c-18.71,4.9-32.47,21.98-32.36,42.28c0.11,22.7,17.72,41.14,39.88,43.12c1.03,0.08,1.9-0.72,1.9-1.75v-13.12
		c0-0.87-0.65-1.6-1.52-1.71c-5.85-0.72-11.41-3.31-15.66-7.49c-5.21-5.09-8.1-11.98-8.1-19.24c0-6.08,1.98-11.82,5.7-16.61
		c3.61-4.64,8.74-8.02,14.37-9.51l8.25-2.17l3-7.98c1.86-4.94,4.49-9.62,7.76-13.8c3.23-4.18,7.07-7.83,11.37-10.87
		c8.93-6.27,19.43-9.62,30.42-9.62c10.99,0,21.48,3.31,30.42,9.62c4.33,3.04,8.14,6.69,11.37,10.87c3.27,4.18,5.89,8.86,7.76,13.8
		l3,7.95l8.21,2.17c11.79,3.12,20,13.84,20,26.08c0,7.3-2.85,14.14-8.1,19.24c-4.22,4.18-9.77,6.77-15.63,7.49
		c-0.87,0.11-1.48,0.84-1.48,1.71v13.16c0,1.03,0.87,1.82,1.9,1.75c22.13-1.98,39.69-20.38,39.85-43.04
		C2753.49,137.49,2739.77,120.38,2721.1,115.44z"/>
</g>
<g id="Page-1">
	<g id="css">
		<polyline id="Path" class="st1" points="3264.17,-62.98 3340.63,-88.36 3366,-215.05 3222.78,-215.05 3217.33,-186.79 
			3332.11,-186.79 3328.54,-168.74 3213.59,-168.74 3207.96,-140.47 3322.75,-140.47 3316.44,-108.11 3270.12,-92.96 
			3230.1,-108.11 3232.83,-122.24 3204.56,-122.24 3197.92,-88.36 3264.17,-62.98 		"/>
	</g>
</g>
<g>
	<path id="XMLID_2_" class="st0" d="M1943.41,192.87l0.92-1.3l43.7-82.92l0.08-0.88l-19.28-36.21c-1.63-3.05-6.15-2.26-6.69,1.13
		L1943.41,192.87z"/>
	<path id="XMLID_3_" class="st0" d="M2002.17,135.16l14.34-14.68l-14.34-27.39c-1.38-2.59-5.19-2.59-6.52,0l-7.65,14.64v1.25
		L2002.17,135.16z"/>
	<polygon id="XMLID_4_" class="st2" points="1943.41,192.87 1943.83,192.45 1945.34,191.82 2001.29,136.12 2001.96,134.2 
		1988.03,107.6 	"/>
	<path id="XMLID_5_" class="st3" d="M2003.97,220.97l50.6-28.23l-14.47-89.03c-0.46-2.8-3.89-3.89-5.85-1.88l-90.83,91.04
		l50.35,28.1C1996.9,222.77,2000.79,222.77,2003.97,220.97"/>
	<path id="XMLID_6_" class="st0" d="M2054.15,192.49l-14.34-88.32c-0.46-2.76-3.3-3.89-5.27-1.92l-90.58,90.45l49.76,27.81
		c3.14,1.76,6.98,1.76,10.16,0L2054.15,192.49z"/>
	<path id="XMLID_7_" class="st4" d="M2003.97,220.13c-3.18,1.76-7.07,1.76-10.25,0l-49.93-27.68l-0.42,0.42l50.35,28.1
		c3.18,1.76,7.07,1.76,10.25,0l50.6-28.23l-0.13-0.75L2003.97,220.13z"/>
</g>
<path class="st0" d="M1781,72.28c-15.46,2.74-18.26,8.45-18.26,19.02v13.92h36.56v4.65h-50.28c-10.64,0-19.94,6.4-22.85,18.54
	c-3.35,13.92-3.49,22.61,0,37.14c2.6,10.81,8.79,18.54,19.43,18.54h12.55v-16.69c0-12.07,10.43-22.71,22.85-22.71h36.53
	c10.16,0,18.26-8.38,18.26-18.57V91.26c0-9.92-8.35-17.34-18.26-19.02C1805.28,70.22,1791.98,70.33,1781,72.28z M1778.7,81.99
	c3.76,0,6.87,3.15,6.87,6.98s-3.08,6.94-6.87,6.94s-6.87-3.11-6.87-6.94C1771.86,85.1,1774.91,81.99,1778.7,81.99z M1842.05,109.83
	v16.25c0,12.59-10.67,23.19-22.85,23.19h-36.53c-9.99,0-18.26,8.55-18.26,18.57v34.82c0,9.92,8.62,15.73,18.26,18.57
	c11.56,3.39,22.68,4,36.53,0c9.2-2.67,18.26-8.04,18.26-18.57v-13.92h-36.49v-4.65h54.79c10.64,0,14.57-7.42,18.26-18.54
	c3.83-11.46,3.66-22.47,0-37.14c-2.63-10.57-7.63-18.54-18.26-18.54h-13.71V109.83z M1821.49,198c3.8,0,6.87,3.11,6.87,6.94
	c0,3.86-3.08,6.98-6.87,6.98c-3.76,0-6.87-3.15-6.87-6.98C1814.65,201.08,1817.73,198,1821.49,198z"/>
<g>
	<path id="XMLID_33_" class="st0" d="M2343.42,121.77c-8.13,0-14.23,3.96-14.23,13.63c0,7.22,3.96,12.31,13.73,12.31
		c8.23,0,13.93-4.88,13.93-12.61C2356.95,126.34,2351.86,121.77,2343.42,121.77L2343.42,121.77z M2327.15,189.58
		c-1.94,2.34-3.86,4.88-3.86,7.83c0,5.9,7.52,7.73,17.89,7.73c8.54,0,20.23-0.61,20.23-8.54c0-4.78-5.59-5.08-12.71-5.49
		L2327.15,189.58L2327.15,189.58z M2370.98,122.18c2.65,3.36,5.49,8.13,5.49,14.94c0,16.37-12.91,26.03-31.52,26.03
		c-4.78,0-9.05-0.61-11.69-1.32l-4.88,7.83l14.54,0.91c25.62,1.62,40.67,2.34,40.67,22.06c0,16.98-14.94,26.64-40.67,26.64
		c-26.74,0-37.01-6.81-37.01-18.5c0-6.61,2.95-10.17,8.13-15.05c-4.88-2.04-6.51-5.8-6.51-9.76c0-3.25,1.62-6.2,4.27-9.05
		c2.65-2.85,5.59-5.59,9.15-8.85c-7.22-3.56-12.71-11.28-12.71-22.16c0-16.98,11.28-28.67,33.86-28.67c6.41,0,10.17,0.61,13.63,1.52
		h28.87v12.61L2370.98,122.18"/>
	<path id="XMLID_36_" class="st0" d="M2410.63,95.33c-8.44,0-13.32-4.88-13.32-13.32s4.88-13.02,13.32-13.02
		c8.54,0,13.42,4.57,13.42,13.02S2419.17,95.33,2410.63,95.33z M2391.51,184.2v-11.7l7.52-1.01c2.04-0.3,2.34-0.71,2.34-2.95v-43.52
		c0-1.62-0.41-2.65-1.94-3.15l-8.03-2.85l1.62-11.99h30.61v61.41c0,2.34,0.1,2.65,2.34,2.95l7.52,1.01v11.69L2391.51,184.2"/>
	<path id="XMLID_37_" class="st0" d="M2492.18,178.4c-6.41,3.15-15.66,5.9-24.1,5.9c-17.59,0-24.3-7.12-24.3-23.79v-38.74
		c0-0.91,0-1.52-1.22-1.52h-10.37v-13.12c13.02-1.52,18.2-8.03,19.83-24.1h14.03v21.05c0,1.01,0,1.52,1.22,1.52h20.84v14.74h-22.06
		v35.28c0,8.75,2.04,12.1,10.07,12.1c4.17,0,8.44-1.01,11.99-2.34L2492.18,178.4"/>
	<path id="XMLID_38_" class="st0" d="M2273.06,139.66l-67.61-67.61c-3.86-3.86-10.17-3.86-14.13,0l-14.03,14.03l17.79,17.79
		c4.17-1.42,8.85-0.51,12.2,2.85s4.27,8.13,2.85,12.31l17.18,17.18c4.17-1.42,8.95-0.51,12.31,2.85c4.67,4.67,4.67,12.1,0,16.78
		c-4.67,4.67-12.1,4.67-16.78,0c-3.46-3.46-4.37-8.64-2.54-12.91l-15.97-15.97v42.09c1.12,0.61,2.24,1.32,3.15,2.24
		c4.67,4.67,4.67,12.1,0,16.78c-4.67,4.67-12.2,4.67-16.78,0c-4.67-4.67-4.67-12.2,0-16.78c1.12-1.12,2.44-2.04,3.86-2.54v-42.5
		c-1.42-0.61-2.75-1.42-3.86-2.54c-3.56-3.56-4.37-8.64-2.54-13.02L2170.37,93L2124,139.36c-3.86,3.86-3.86,10.17,0,14.13
		l67.61,67.61c3.86,3.86,10.17,3.86,14.13,0l67.31-67.31C2276.92,149.83,2276.92,143.53,2273.06,139.66"/>
</g>
<g>
	<polygon id="Path_3_" class="st1" points="163.7,100.07 153.8,210.69 109.3,223 64.92,210.71 55.03,100.07 	"/>
	<polygon class="st5" points="109.36,213.59 145.32,203.65 153.78,109.11 109.36,109.11 	"/>
	<polygon class="st6" points="90.12,136.25 109.36,136.25 109.36,122.68 75.25,122.68 75.57,126.33 78.92,163.72 109.36,163.72 
		109.36,150.15 91.36,150.15 	"/>
	<polygon class="st6" points="93.18,170.51 79.53,170.51 81.43,191.81 109.3,199.53 109.36,199.51 109.36,185.39 109.3,185.41 
		94.15,181.33 	"/>
	<polygon class="st1" points="65.14,70 72.05,70 72.05,76.81 78.38,76.81 78.38,70 85.29,70 85.29,90.63 78.38,90.63 78.38,83.72 
		72.05,83.72 72.05,90.63 65.14,90.63 65.14,70 	"/>
	<polygon class="st1" points="94.38,76.84 88.29,76.84 88.29,70 107.38,70 107.38,76.84 101.29,76.84 101.29,90.63 94.38,90.63 
		94.38,76.84 	"/>
	<polygon class="st1" points="110.41,70 117.62,70 122.06,77.25 126.49,70 133.7,70 133.7,90.63 126.81,90.63 126.81,80.41 
		122.06,87.74 121.94,87.74 117.18,80.41 117.18,90.63 110.41,90.63 	"/>
	<polygon class="st1" points="137.14,70 144.05,70 144.05,83.81 153.78,83.81 153.78,90.63 137.14,90.63 	"/>
	<polygon class="st7" points="109.31,163.72 126.07,163.72 124.49,181.32 109.31,185.4 109.31,199.52 137.2,191.81 137.41,189.52 
		140.61,153.79 140.94,150.15 109.31,150.15 	"/>
	<polygon class="st7" points="109.31,136.22 109.31,136.25 142.18,136.25 142.45,133.2 143.07,126.33 143.39,122.68 109.31,122.68 	
		"/>
</g>
<path class="st0" d="M684.83,71.71h152.95v152.95H684.83L684.83,71.71z"/>
<path class="st8" d="M825.26,188.18c-1.12-6.98-5.67-12.84-19.15-18.3c-4.68-2.15-9.9-3.69-11.46-7.24
	c-0.55-2.06-0.63-3.23-0.28-4.48c1-4.06,5.85-5.32,9.68-4.16c2.47,0.83,4.81,2.73,6.22,5.77c6.6-4.27,6.59-4.25,11.2-7.18
	c-1.69-2.62-2.59-3.82-3.69-4.94c-3.97-4.43-9.38-6.72-18.03-6.54l-4.51,0.58c-4.32,1.09-8.43,3.36-10.85,6.4
	c-7.24,8.22-5.18,22.59,3.63,28.51c8.68,6.51,21.43,8,23.06,14.09c1.58,7.46-5.48,9.87-12.5,9.01c-5.18-1.08-8.05-3.71-11.17-8.49
	c-5.73,3.31-5.73,3.31-11.62,6.7c1.4,3.05,2.86,4.44,5.2,7.08c11.08,11.24,38.8,10.69,43.78-6.32
	C825,198.08,826.34,194.19,825.26,188.18z M767.98,142.01h-14.31l-0.06,36.99c0,7.87,0.41,15.08-0.87,17.29
	c-2.09,4.35-7.52,3.81-9.99,2.97c-2.52-1.24-3.79-2.99-5.28-5.48c-0.41-0.71-0.71-1.27-0.81-1.31l-11.63,7.12
	c1.93,3.97,4.78,7.42,8.43,9.65c5.45,3.27,12.78,4.28,20.44,2.52c4.99-1.45,9.29-4.46,11.54-9.04c3.26-6.01,2.56-13.27,2.53-21.31
	C768.05,168.28,767.98,155.16,767.98,142.01z"/>
<g id="kotlin">
	<polygon id="Path_2_" class="st9" points="1504.65,223 1581.11,146.54 1657.07,223 	"/>
	<polygon class="st9" points="1504.65,70.58 1581.11,70.58 1504.65,153.14 	"/>
	<polygon class="st9" points="1581.11,70.58 1504.65,151.11 1504.65,223 1581.11,146.54 1657.07,70.58 	"/>
</g>
<g id="XMLID_18_">
	<path id="XMLID_22_" class="st0" d="M1272.29,206.84h-8.44c-0.3-14.24-1.14-27.58-2.45-40.14h-0.06l-12.8,40.14h-6.4l-12.74-40.14
		h-0.06c-0.96,12.03-1.56,25.42-1.8,40.14h-7.77c0.48-17.89,1.74-34.7,3.71-50.31h10.47l12.15,36.97h0.06l12.2-36.97h9.99
		C1270.55,174.83,1271.87,191.64,1272.29,206.84"/>
	<path id="XMLID_21_" class="st0" d="M1308.78,169.69c-3.41,18.61-7.96,32.12-13.58,40.56c-4.37,6.52-9.15,9.75-14.42,9.75
		c-1.38,0-3.11-0.42-5.14-1.26v-4.49c1.01,0.12,2.15,0.24,3.53,0.24c2.45,0,4.43-0.66,5.86-2.03c1.8-1.62,2.69-3.47,2.69-5.51
		c0-1.38-0.72-4.25-2.09-8.55l-9.27-28.71h8.26l6.64,21.48c1.5,4.9,2.09,8.26,1.86,10.23c3.65-9.69,6.16-20.28,7.59-31.71
		L1308.78,169.69L1308.78,169.69z"/>
	<polygon id="XMLID_20_" class="st0" points="1420.94,206.84 1397.01,206.84 1397.01,156.47 1405.09,156.47 1405.09,200.62 
		1420.94,200.62 	"/>
	<path id="XMLID_19_" class="st1" d="M1390.73,208.03l-9.27-4.55c0.84-0.66,1.62-1.38,2.33-2.27c3.95-4.61,5.92-11.42,5.92-20.52
		c0-16.63-6.52-25-19.62-25c-6.4,0-11.42,2.09-15.02,6.34c-3.95,4.61-5.86,11.42-5.86,20.46c0,8.85,1.74,15.31,5.2,19.44
		c3.17,3.71,7.96,5.57,14.42,5.57c2.39,0,4.61-0.3,6.58-0.9l12.03,7L1390.73,208.03z M1360.76,196.73
		c-2.03-3.29-3.05-8.55-3.05-15.79c0-12.68,3.83-19.02,11.54-19.02c4.01,0,7,1.5,8.85,4.55c2.03,3.29,3.05,8.49,3.05,15.67
		c0,12.8-3.83,19.14-11.54,19.14C1365.61,201.33,1362.68,199.78,1360.76,196.73"/>
	<path id="XMLID_26_" class="st0" d="M1345.69,192.9c0,4.25-1.56,7.78-4.67,10.53c-3.11,2.75-7.36,4.13-12.62,4.13
		c-4.9,0-9.69-1.56-14.3-4.73l2.15-4.31c3.95,1.97,7.59,2.99,10.83,2.99c3.05,0,5.38-0.66,7.12-2.03c1.74-1.32,2.75-3.23,2.75-5.57
		c0-2.99-2.09-5.57-5.92-7.66c-3.53-1.91-10.59-5.98-10.59-5.98c-3.83-2.81-5.74-5.8-5.74-10.71c0-4.07,1.44-7.36,4.31-9.87
		s6.58-3.77,11.07-3.77c4.67,0,8.91,1.26,12.74,3.71l-1.97,4.31c-3.29-1.38-6.52-2.09-9.69-2.09c-2.57,0-4.55,0.6-5.98,1.86
		c-1.38,1.26-2.27,2.81-2.27,4.78c0,2.99,2.15,5.57,6.04,7.78c3.59,1.91,10.83,6.04,10.83,6.04
		C1343.77,185,1345.69,187.99,1345.69,192.9"/>
	<path id="XMLID_27_" class="st1" d="M1431.05,139.66c-4.84-0.12-8.61,0.36-11.78,1.68c-0.9,0.36-2.39,0.36-2.51,1.5
		c0.48,0.48,0.54,1.26,0.96,1.97c0.72,1.2,1.97,2.87,3.17,3.71c1.26,0.96,2.57,1.91,3.89,2.81c2.39,1.5,5.02,2.33,7.36,3.77
		c1.32,0.84,2.69,1.91,4.01,2.87c0.66,0.48,1.07,1.26,1.91,1.56v-0.18c-0.42-0.54-0.54-1.32-0.96-1.97c-0.6-0.6-1.2-1.14-1.86-1.74
		c-1.8-2.39-3.95-4.43-6.34-6.16c-1.97-1.32-6.22-3.17-7-5.38l-0.12-0.12c1.32-0.12,2.93-0.6,4.19-0.96
		c2.09-0.54,3.95-0.42,6.1-0.96c0.96-0.24,1.97-0.54,2.93-0.84v-0.54c-1.07-1.07-1.91-2.57-3.05-3.59
		c-3.11-2.69-6.52-5.26-10.05-7.48c-1.91-1.2-4.31-1.97-6.34-3.05c-0.72-0.36-1.91-0.54-2.39-1.14c-1.07-1.32-1.74-3.11-2.51-4.67
		c-1.74-3.35-3.47-7.06-4.96-10.59c-1.07-2.39-1.74-4.73-3.11-6.94c-6.28-10.35-13.1-16.63-23.51-22.73
		c-2.27-1.26-4.9-1.86-7.78-2.51c-1.5-0.06-3.05-0.18-4.55-0.24c-0.96-0.42-1.97-1.56-2.81-2.15c-3.47-2.21-12.38-6.94-14.96-0.66
		c-1.62,3.95,2.45,7.84,3.83,9.87c1.01,1.38,2.39,2.99,3.11,4.55c0.42,1.01,0.54,2.15,0.96,3.23c0.96,2.69,1.86,5.68,3.17,8.14
		c0.66,1.26,1.38,2.63,2.27,3.77c0.48,0.66,1.32,0.96,1.5,2.09c-0.84,1.2-0.9,3.05-1.38,4.55c-2.21,6.88-1.32,15.37,1.8,20.46
		c0.96,1.5,3.29,4.84,6.4,3.59c2.75-1.07,2.15-4.55,2.93-7.6c0.18-0.72,0.06-1.2,0.42-1.68v0.12c0.84,1.68,1.68,3.35,2.51,5.02
		c1.91,2.99,5.14,6.1,7.9,8.14c1.44,1.07,2.63,2.99,4.43,3.65v-0.18h-0.12c-0.36-0.54-0.9-0.78-1.38-1.2
		c-1.07-1.07-2.33-2.45-3.17-3.65c-2.57-3.41-4.78-7.18-6.82-11.07c-0.96-1.91-1.85-3.95-2.63-5.86c-0.36-0.72-0.36-1.8-0.96-2.21
		c-0.9,1.32-2.27,2.51-2.93,4.13c-1.14,2.63-1.26,5.86-1.74,9.21c-0.24,0.06-0.12,0-0.24,0.12c-1.91-0.48-2.63-2.51-3.35-4.19
		c-1.8-4.31-2.15-11.25-0.54-16.27c0.42-1.26,2.27-5.26,1.5-6.52c-0.36-1.14-1.56-1.8-2.27-2.75c-0.78-1.14-1.68-2.63-2.21-3.89
		c-1.44-3.41-2.21-7.18-3.77-10.59c-0.72-1.56-2.03-3.23-3.05-4.67c-1.14-1.62-2.45-2.81-3.35-4.73c-0.3-0.66-0.72-1.8-0.24-2.51
		c0.12-0.48,0.36-0.66,0.84-0.78c0.78-0.66,3.05,0.18,3.83,0.54c2.27,0.9,4.13,1.8,6.04,3.05c0.84,0.6,1.8,1.74,2.87,2.09h1.26
		c1.97,0.42,4.13,0.12,5.98,0.66c3.23,1.01,6.16,2.57,8.73,4.19c7.96,5.02,14.54,12.2,18.96,20.82c0.72,1.38,1.01,2.69,1.74,4.13
		c1.26,2.99,2.87,6.04,4.13,8.97c1.26,2.87,2.51,5.8,4.31,8.14c0.9,1.26,4.55,1.91,6.22,2.63c1.2,0.54,3.11,1.01,4.19,1.68
		c2.09,1.26,4.13,2.75,6.1,4.13C1427.82,136.91,1430.87,138.4,1431.05,139.66"/>
	<path id="XMLID_28_" class="st1" d="M1369.02,86.78c-1.01,0-1.74,0.12-2.51,0.3v0.12h0.12c0.48,0.96,1.32,1.62,1.97,2.51
		c0.48,0.96,0.9,1.91,1.38,2.93l0.12-0.12c0.84-0.6,1.26-1.56,1.26-3.05c-0.36-0.42-0.42-0.84-0.72-1.26
		C1370.27,87.56,1369.5,87.26,1369.02,86.78"/>
	<path id="XMLID_31_" class="st0" d="M1436.85,206.84h1.26v-6.16h-1.91l-1.56,4.19l-1.68-4.19h-1.8v6.16h1.2v-4.73h0.06l1.74,4.67
		h0.9l1.74-4.67v4.73H1436.85z M1426.68,206.84h1.32v-5.14h1.74v-1.07h-4.9v1.07h1.8v5.14H1426.68z"/>
</g>
<path id="XMLID_16_" class="st0" d="M1027.31,223c-0.82,0-1.64-0.2-2.39-0.61l-7.5-4.43c-1.09-0.61-0.54-0.82-0.2-0.95
	c1.5-0.54,1.77-0.61,3.41-1.57c0.14-0.07,0.41-0.07,0.54,0.07l5.8,3.41c0.2,0.14,0.48,0.14,0.68,0l22.51-12.96
	c0.2-0.14,0.34-0.34,0.34-0.61v-25.92c0-0.27-0.14-0.48-0.34-0.61l-22.44-12.96c-0.2-0.14-0.48-0.14-0.68,0l-22.44,12.96
	c-0.2,0.14-0.34,0.34-0.34,0.61v25.92c0,0.27,0.14,0.48,0.34,0.61l6.14,3.55c3.34,1.71,5.39-0.27,5.39-2.25v-25.72
	c0-0.34,0.27-0.61,0.68-0.61h2.86c0.34,0,0.61,0.27,0.61,0.61v25.65c0,4.43-2.46,7.02-6.68,7.02c-1.3,0-2.32,0-5.18-1.43l-5.87-3.41
	c-1.43-0.82-2.39-2.39-2.39-4.09v-25.92c0-1.71,0.88-3.27,2.39-4.09l22.51-12.96c1.43-0.82,3.34-0.82,4.71,0l22.51,12.96
	c1.43,0.82,2.39,2.39,2.39,4.09v25.92c0,1.71-0.88,3.27-2.39,4.09l-22.51,12.96C1028.94,222.73,1028.13,223,1027.31,223"/>
<path id="XMLID_13_" class="st0" d="M1034.27,205.13c-9.82,0-11.87-4.5-11.87-8.32c0-0.34,0.27-0.61,0.68-0.61h2.93
	c0.34,0,0.61,0.2,0.61,0.54c0.41,2.93,1.77,4.43,7.71,4.43c4.71,0,6.75-1.09,6.75-3.62c0-1.43-0.54-2.52-7.91-3.27
	c-6.14-0.61-9.96-1.98-9.96-6.89c0-4.57,3.82-7.23,10.23-7.23c7.23,0,10.78,2.52,11.19,7.85c0,0.2-0.07,0.34-0.2,0.48
	c-0.14,0.14-0.27,0.2-0.48,0.2h-2.93c-0.27,0-0.54-0.2-0.61-0.48c-0.68-3.14-2.39-4.09-7.02-4.09c-5.18,0-5.8,1.77-5.8,3.14
	c0,1.64,0.68,2.11,7.71,3.07c6.89,0.88,10.17,2.18,10.17,7.09C1045.45,202.33,1041.36,205.13,1034.27,205.13 M1061.62,177.64h0.75
	c0.61,0,0.75-0.41,0.75-0.68c0-0.68-0.48-0.68-0.68-0.68h-0.75L1061.62,177.64z M1060.67,175.45h1.71c0.54,0,1.71,0,1.71,1.3
	c0,0.88-0.54,1.09-0.88,1.16c0.68,0.07,0.68,0.48,0.82,1.09c0.07,0.41,0.14,1.09,0.27,1.3h-1.02c0-0.2-0.2-1.43-0.2-1.5
	c-0.07-0.27-0.14-0.41-0.48-0.41h-0.82v1.98h-0.95v-4.91L1060.67,175.45L1060.67,175.45z M1058.69,177.91
	c0,2.05,1.64,3.62,3.62,3.62c2.05,0,3.62-1.64,3.62-3.62c0-2.05-1.64-3.62-3.62-3.62C1060.32,174.3,1058.69,175.86,1058.69,177.91
	 M1066.67,177.91c0,2.39-1.98,4.37-4.37,4.37c-2.39,0-4.37-1.91-4.37-4.37s2.05-4.37,4.37-4.37
	C1064.62,173.61,1066.67,175.45,1066.67,177.91"/>
<path id="XMLID_12_" class="st0" d="M957.66,121.43c0-1.02-0.54-1.98-1.43-2.52l-23.81-13.71c-0.41-0.2-0.88-0.34-1.3-0.41h-0.27
	c-0.48,0-0.88,0.14-1.3,0.41l-23.8,13.71c-0.88,0.54-1.43,1.5-1.43,2.52l0.07,36.97c0,0.54,0.27,1.02,0.68,1.23
	c0.41,0.27,1.02,0.27,1.43,0l14.12-8.12c0.88-0.54,1.43-1.5,1.43-2.52v-17.26c0-1.02,0.54-1.98,1.43-2.52l6-3.48
	c0.48-0.27,0.95-0.41,1.43-0.41c0.48,0,1.02,0.14,1.43,0.41l6,3.48c0.88,0.54,1.43,1.43,1.43,2.52v17.26c0,1.02,0.54,1.98,1.43,2.52
	l14.19,8.12c0.48,0.27,1.02,0.27,1.43,0c0.41-0.27,0.68-0.75,0.68-1.23L957.66,121.43z M1070.15,140.66c0,0.27-0.14,0.48-0.34,0.61
	l-8.19,4.71c-0.2,0.14-0.48,0.14-0.75,0l-8.19-4.71c-0.2-0.14-0.34-0.34-0.34-0.61v-9.48c0-0.27,0.14-0.48,0.34-0.61l8.19-4.71
	c0.2-0.14,0.48-0.14,0.75,0l8.19,4.71c0.2,0.14,0.34,0.34,0.34,0.61V140.66z M1072.4,70.68c-0.48-0.27-1.02-0.27-1.43,0
	s-0.68,0.75-0.68,1.23v36.63c0,0.34-0.2,0.68-0.48,0.88c-0.34,0.2-0.68,0.2-1.02,0l-6-3.41c-0.88-0.54-1.98-0.54-2.86,0
	l-23.88,13.78c-0.88,0.54-1.43,1.43-1.43,2.46v27.56c0,1.02,0.54,1.98,1.43,2.52l23.88,13.78c0.88,0.54,1.98,0.54,2.86,0
	l23.88-13.78c0.88-0.54,1.43-1.43,1.43-2.52V81.12c0-1.02-0.54-1.98-1.5-2.52L1072.4,70.68z M1151.8,130.98
	c0.88-0.54,1.43-1.43,1.43-2.46v-6.68c0-1.02-0.54-1.98-1.43-2.52l-23.67-13.78c-0.88-0.54-1.98-0.54-2.86,0l-23.88,13.78
	c-0.88,0.54-1.43,1.43-1.43,2.52v27.49c0,1.02,0.54,1.98,1.43,2.52l23.67,13.51c0.88,0.48,1.91,0.48,2.8,0l14.33-7.98
	c0.48-0.27,0.75-0.75,0.75-1.23c0-0.54-0.27-1.02-0.75-1.23l-24.01-13.78c-0.48-0.27-0.75-0.75-0.75-1.23v-8.66
	c0-0.54,0.27-1.02,0.75-1.23l7.43-4.3c0.48-0.27,1.02-0.27,1.43,0l7.43,4.3c0.48,0.27,0.75,0.75,0.75,1.23v6.82
	c0,0.54,0.27,1.02,0.75,1.23c0.48,0.27,1.02,0.27,1.43,0L1151.8,130.98z"/>
<path id="XMLID_14_" class="st0" d="M1126.29,129.68c0.14-0.07,0.41-0.07,0.54,0l4.57,2.66c0.2,0.07,0.27,0.27,0.27,0.48v5.25
	c0,0.2-0.14,0.41-0.27,0.48l-4.57,2.66c-0.2,0.07-0.41,0.07-0.54,0l-4.57-2.66c-0.2-0.07-0.27-0.27-0.27-0.48v-5.25
	c0-0.2,0.07-0.41,0.27-0.48L1126.29,129.68z"/>
<g id="XMLID_15_">
	<g>
		<g>
			<defs>
				<path id="SVGID_1_" d="M994.7,105.74l-23.74,13.71c-0.88,0.54-1.43,1.43-1.43,2.46v27.42c0,1.02,0.54,1.98,1.43,2.46
					l23.74,13.71c0.88,0.48,1.98,0.48,2.86,0l23.74-13.71c0.88-0.54,1.43-1.43,1.43-2.46V121.9c0-1.02-0.54-1.98-1.43-2.46
					l-23.74-13.71c-0.48-0.27-0.95-0.41-1.43-0.41C995.65,105.33,995.18,105.47,994.7,105.74"/>
			</defs>
			<use xlink:href="#SVGID_1_"  style="overflow:visible;fill:#222222;"/>
			<clipPath id="SVGID_2_">
				<use xlink:href="#SVGID_1_"  style="overflow:visible;"/>
			</clipPath>
			<polygon class="st10" points="1046.68,117.06 979.83,84.32 945.59,154.24 1012.44,186.98 			"/>
		</g>
	</g>
</g>
<g id="XMLID_17_" class="st11">
	<g>
		<g>
			<defs>
				<path id="SVGID_3_" d="M970.14,151.03c0.2,0.27,0.48,0.54,0.82,0.75l20.33,11.73l3.41,1.98c0.48,0.27,1.09,0.41,1.64,0.34
					c0.2,0,0.41-0.07,0.54-0.14l25.03-45.77c-0.2-0.2-0.41-0.41-0.68-0.54l-15.55-8.94l-8.19-4.71c-0.2-0.14-0.48-0.2-0.75-0.27
					L970.14,151.03z"/>
			</defs>
			<use xlink:href="#SVGID_3_"  style="overflow:visible;fill:#222222;"/>
			<clipPath id="SVGID_4_">
				<use xlink:href="#SVGID_3_"  style="overflow:visible;"/>
			</clipPath>
			<polygon class="st12" points="941.29,126.75 988.43,190.6 1050.84,144.55 1003.64,80.64 			"/>
		</g>
	</g>
</g>
<g id="XMLID_11_">
	<g>
		<g>
			<defs>
				<path id="SVGID_5_" d="M995.86,105.33c-0.41,0.07-0.82,0.14-1.16,0.34l-23.67,13.64l25.51,46.45c0.34-0.07,0.68-0.14,1.02-0.34
					l23.74-13.71c0.75-0.41,1.23-1.16,1.37-1.98l-25.99-44.34c-0.2-0.07-0.41-0.07-0.54-0.07
					C996,105.33,995.93,105.33,995.86,105.33"/>
			</defs>
			<use xlink:href="#SVGID_5_"  style="overflow:visible;fill:#222222;"/>
			<clipPath id="SVGID_6_">
				<use xlink:href="#SVGID_5_"  style="overflow:visible;"/>
			</clipPath>
			<rect x="971.1" y="105.33" class="st13" width="51.57" height="60.44"/>
		</g>
	</g>
</g>
<g id="XMLID_8_">
	<path id="XMLID_9_" class="st0" d="M587.65,119.55c-1.79-0.61-3.63-1.18-5.52-1.74c0.33-1.27,0.61-2.55,0.85-3.77
		c4.2-20.36,1.46-36.77-7.92-42.14c-8.96-5.19-23.66,0.24-38.46,13.1c-1.41,1.23-2.88,2.55-4.29,3.91c-0.94-0.9-1.89-1.79-2.83-2.64
		c-15.56-13.81-31.11-19.61-40.44-14.19c-8.96,5.19-11.64,20.6-7.87,39.88c0.38,1.89,0.8,3.77,1.27,5.7
		c-2.22,0.61-4.34,1.27-6.36,1.98c-18.19,6.36-29.84,16.31-29.84,26.63c0,10.65,12.49,21.35,31.44,27.86
		c1.51,0.52,3.06,0.99,4.67,1.46c-0.52,2.07-0.99,4.15-1.37,6.13c-3.58,18.95-0.8,33.99,8.15,39.17
		c9.24,5.33,24.75-0.14,39.83-13.34c1.18-1.04,2.4-2.17,3.58-3.3c1.56,1.51,3.11,2.92,4.67,4.24
		c14.61,12.59,29.08,17.68,37.99,12.49c9.24-5.33,12.21-21.49,8.34-41.2c-0.28-1.51-0.66-3.02-1.04-4.62
		c1.08-0.33,2.17-0.66,3.21-0.99c19.7-6.55,32.57-17.11,32.57-27.91C618.24,135.96,606.22,125.96,587.65,119.55z M583.36,167.25
		c-0.94,0.33-1.89,0.61-2.88,0.9c-2.17-6.88-5.14-14.24-8.72-21.78c3.44-7.4,6.27-14.61,8.39-21.49c1.74,0.52,3.49,1.04,5.14,1.6
		c15.93,5.47,25.64,13.58,25.64,19.84C610.89,152.97,600.43,161.6,583.36,167.25z M576.29,181.25c1.74,8.72,1.98,16.55,0.85,22.72
		c-1.04,5.52-3.06,9.19-5.66,10.7c-5.42,3.16-17.02-0.94-29.51-11.69c-1.41-1.23-2.88-2.55-4.34-3.96
		c4.86-5.28,9.71-11.45,14.42-18.29c8.3-0.75,16.17-1.93,23.29-3.58C575.73,178.52,576.06,179.89,576.29,181.25z M504.83,214.11
		c-5.28,1.89-9.52,1.93-12.07,0.47c-5.42-3.11-7.68-15.23-4.62-31.44c0.33-1.84,0.75-3.77,1.27-5.7c7.07,1.56,14.85,2.69,23.19,3.35
		c4.76,6.69,9.76,12.87,14.75,18.24c-1.08,1.04-2.17,2.07-3.3,3.02C517.42,207.89,510.72,212.03,504.83,214.11z M480.04,167.21
		c-8.39-2.88-15.32-6.6-20.08-10.65c-4.29-3.68-6.41-7.26-6.41-10.23c0-6.27,9.33-14.24,24.94-19.7c1.89-0.66,3.87-1.27,5.94-1.89
		c2.17,7.02,5,14.33,8.39,21.73c-3.44,7.49-6.32,14.94-8.48,22.06C482.82,168.1,481.4,167.68,480.04,167.21z M488.33,110.6
		c-3.25-16.55-1.08-28.99,4.34-32.1c5.75-3.35,18.48,1.41,31.91,13.34c0.85,0.75,1.7,1.56,2.59,2.4c-5,5.37-9.95,11.5-14.66,18.15
		c-8.11,0.75-15.84,1.93-22.96,3.58C489.09,114.08,488.71,112.29,488.33,110.6z M562.57,128.89c-1.7-2.92-3.44-5.8-5.23-8.63
		c5.47,0.71,10.75,1.6,15.7,2.73c-1.46,4.76-3.35,9.71-5.52,14.8C565.97,134.92,564.32,131.9,562.57,128.89z M532.31,99.42
		c3.39,3.68,6.79,7.78,10.13,12.21c-3.35-0.14-6.79-0.24-10.23-0.24c-3.39,0-6.79,0.09-10.13,0.24
		C525.43,107.25,528.87,103.15,532.31,99.42z M501.86,128.98c-1.7,2.97-3.3,5.94-4.86,8.91c-2.12-5.09-3.96-10.09-5.47-14.9
		c4.9-1.08,10.13-1.98,15.6-2.69C505.3,123.09,503.56,126.01,501.86,128.98L501.86,128.98z M507.28,172.86
		c-5.66-0.61-10.94-1.46-15.84-2.55c1.51-4.9,3.39-9.99,5.56-15.18c1.56,2.97,3.16,5.94,4.86,8.91l0,0
		C503.61,167.07,505.4,169.99,507.28,172.86z M532.5,193.75c-3.49-3.77-6.98-7.92-10.37-12.4c3.3,0.14,6.65,0.19,10.09,0.19
		c3.49,0,6.98-0.09,10.37-0.24C539.24,185.87,535.85,190.02,532.5,193.75z M567.57,154.86c2.31,5.23,4.24,10.32,5.8,15.13
		c-5,1.13-10.37,2.07-16.03,2.73c1.79-2.83,3.54-5.75,5.28-8.77C564.37,160.94,566.02,157.92,567.57,154.86z M556.21,160.33
		c-2.69,4.67-5.47,9.1-8.25,13.34c-5.09,0.38-10.37,0.57-15.74,0.57s-10.56-0.19-15.56-0.47c-2.92-4.24-5.75-8.72-8.39-13.34l0,0
		c-2.69-4.62-5.14-9.24-7.35-13.86c2.22-4.62,4.67-9.29,7.31-13.86l0,0c2.64-4.62,5.47-9.05,8.34-13.29
		c5.14-0.38,10.37-0.57,15.65-0.57l0,0c5.33,0,10.56,0.19,15.7,0.61c2.83,4.2,5.61,8.63,8.3,13.25c2.69,4.67,5.18,9.29,7.4,13.81
		C561.4,150.99,558.9,155.66,556.21,160.33z M571.39,78.26c5.75,3.3,8.01,16.73,4.38,34.32c-0.24,1.13-0.47,2.26-0.75,3.44
		c-7.12-1.65-14.9-2.88-23-3.63c-4.71-6.74-9.62-12.87-14.57-18.15c1.32-1.27,2.64-2.5,3.96-3.63
		C554.09,79.49,565.97,75.15,571.39,78.26z M532.22,130.96c8.48,0,15.37,6.88,15.37,15.37s-6.88,15.37-15.37,15.37
		c-8.48,0-15.37-6.88-15.37-15.37C516.85,137.84,523.73,130.96,532.22,130.96z"/>
</g>
<g>
	<polygon id="Path_1_" class="st1" points="230.23,145.95 230.23,220.69 304.97,220.69 379.7,220.69 379.7,145.95 379.7,71.22 
		304.97,71.22 230.23,71.22 	"/>
	<path class="st7" d="M263.29,146.45l-0.05,6.12h9.73h9.73v27.64v27.64h6.88h6.88v-27.64v-27.64h9.73h9.73v-6
		c0-3.32-0.07-6.1-0.17-6.17c-0.07-0.09-11.91-0.14-26.26-0.12l-26.12,0.07L263.29,146.45z"/>
	<path class="st7" d="M350.84,140.18c3.8,0.95,6.69,2.63,9.35,5.39c1.38,1.47,3.42,4.15,3.58,4.79c0.05,0.19-6.45,4.56-10.39,7
		c-0.14,0.09-0.71-0.52-1.35-1.47c-1.92-2.8-3.94-4.01-7.02-4.22c-4.53-0.31-7.45,2.06-7.43,6.03c0,1.16,0.17,1.85,0.64,2.8
		c1,2.06,2.85,3.3,8.66,5.81c10.7,4.6,15.28,7.64,18.13,11.96c3.18,4.82,3.89,12.5,1.73,18.22c-2.37,6.22-8.26,10.44-16.54,11.84
		c-2.56,0.45-8.64,0.38-11.39-0.12c-6-1.07-11.7-4.03-15.21-7.92c-1.38-1.52-4.06-5.48-3.89-5.77c0.07-0.09,0.69-0.47,1.38-0.88
		c0.66-0.38,3.18-1.83,5.55-3.2l4.29-2.49l0.9,1.33c1.26,1.92,4.01,4.56,5.67,5.43c4.77,2.51,11.32,2.16,14.54-0.74
		c1.38-1.26,1.95-2.56,1.95-4.48c0-1.73-0.21-2.49-1.12-3.8c-1.16-1.66-3.54-3.06-10.27-5.98c-7.71-3.32-11.03-5.39-14.07-8.66
		c-1.76-1.9-3.42-4.93-4.1-7.47c-0.57-2.11-0.71-7.4-0.26-9.54c1.59-7.45,7.21-12.65,15.33-14.19
		C342.13,139.35,348.25,139.54,350.84,140.18z"/>
</g>
<rect x="-151" y="1205" class="st0" width="3165" height="355"/>
<sodipodi:namedview  bordercolor="#666666" borderopacity="1.0" fit-margin-bottom="0" fit-margin-left="0" fit-margin-right="0" fit-margin-top="0" id="base" pagecolor="#ffffff" showgrid="false">
	</sodipodi:namedview>
<polygon id="polygon2989" class="st0" points="2925.5,99.07 2915.63,209.69 2871.24,222 2826.97,209.71 2817.11,99.07 "/>
<polygon id="polygon2991" class="st2" points="2907.17,202.65 2915.61,108.11 2871.3,108.11 2871.3,212.59 "/>
<polygon id="polygon2993" class="st14" points="2839.72,149.15 2840.94,162.72 2871.3,162.72 2871.3,149.15 "/>
<polygon id="polygon2995" class="st14" points="2871.3,121.68 2871.26,121.68 2837.28,121.68 2838.51,135.25 2871.3,135.25 "/>
<polygon id="polygon2997" class="st14" points="2871.3,198.51 2871.3,184.39 2871.24,184.41 2856.13,180.33 2855.17,169.51 
	2847.82,169.51 2841.54,169.51 2843.44,190.81 2871.24,198.53 "/>
<path id="path2999" class="st0" d="M2842.62,69h16.44v6.87h-9.56v6.87h9.56v6.87h-16.44V69z"/>
<path id="path3001" class="st0" d="M2862.34,69h16.44v5.98h-9.56v1.2h9.56v13.75h-16.44v-6.28h9.56v-1.2h-9.56V69z"/>
<path id="path3003" class="st0" d="M2882.06,69h16.44v5.98h-9.56v1.2h9.56v13.75h-16.44v-6.28h9.56v-1.2h-9.56V69z"/>
<polygon id="polygon3005" class="st8" points="2887.97,162.72 2886.39,180.32 2871.26,184.4 2871.26,198.52 2899.08,190.81 
	2899.28,188.52 2902.47,152.79 2902.8,149.15 2905.25,121.68 2871.26,121.68 2871.26,135.25 2890.38,135.25 2889.14,149.15 
	2871.26,149.15 2871.26,162.72 "/>
</svg>
