<svg width="139" height="946" viewBox="0 0 139 946" fill="none" xmlns="http://www.w3.org/2000/svg">
<path d="M60.5739 103.445L46.0235 38.0402L110.953 54.583L60.5739 103.445Z" stroke="#23464F" stroke-width="7"/>
<path d="M60.4783 177.097L45.9279 111.693L110.857 128.235L60.4783 177.097Z" stroke="#23464F" stroke-width="7"/>
<path d="M60.4783 251.097L45.9279 185.693L110.857 202.235L60.4783 251.097Z" stroke="#23464F" stroke-width="7"/>
<path d="M60.4783 324.097L45.9279 258.693L110.857 275.235L60.4783 324.097Z" stroke="#23464F" stroke-width="7"/>
<path d="M57.4783 399.097L42.9279 333.693L107.857 350.235L57.4783 399.097Z" stroke="#23464F" stroke-width="7"/>
<path d="M53.4783 472.097L38.9279 406.693L103.857 423.235L53.4783 472.097Z" stroke="#23464F" stroke-width="7"/>
<path d="M60.5739 549.097L46.0235 483.693L110.953 500.235L60.5739 549.097Z" stroke="#23464F" stroke-width="7"/>
<path d="M60.4783 622.749L45.9279 557.345L110.857 573.888L60.4783 622.749Z" stroke="#23464F" stroke-width="7"/>
<path d="M60.4783 696.749L45.9279 631.345L110.857 647.888L60.4783 696.749Z" stroke="#23464F" stroke-width="7"/>
<path d="M60.4783 769.749L45.9279 704.345L110.857 720.888L60.4783 769.749Z" stroke="#23464F" stroke-width="7"/>
<path d="M57.4783 844.749L42.9279 779.345L107.857 795.888L57.4783 844.749Z" stroke="#23464F" stroke-width="7"/>
<path d="M53.4783 917.749L38.9279 852.345L103.857 868.888L53.4783 917.749Z" stroke="#23464F" stroke-width="7"/>
</svg>
